<svg xmlns="http://www.w3.org/2000/svg" viewBox="0 0 900 430" role="img" aria-labelledby="title desc"><title id="title">Same degrees: three networks after two hops from A</title><desc id="desc">Every vertex has degree three, and every graph has eighteen edges. Spread reaches eight vertices, Narrow seven, and Apart six. Apart contains an unreachable six-vertex component.</desc><rect width="900" height="430" fill="#0d0b18"/><g font-family="Helvetica,Arial,sans-serif"><text x="24" y="29" font-size="12" fill="#c9c0e5" letter-spacing="1.4">SOURCE A · HOP 2 · TWELVE DEGREES = 3</text><rect x="14" y="48" width="280" height="352" rx="2" fill="#171329" stroke="#4d4672"/><text x="30" y="76" font-size="17" fill="#f6f2ff">01 Spread</text><g transform="translate(22 91) scale(.55)"><path d="M240.000 26.000L385.492 110.000" stroke="#67d7c4" stroke-width="2.4" /><path d="M240.000 26.000L94.508 110.000" stroke="#67d7c4" stroke-width="2.4" /><path d="M240.000 26.000L270.000 142.038" stroke="#67d7c4" stroke-width="2.4" /><path d="M385.492 110.000L385.492 278.000" stroke="#67d7c4" stroke-width="2.4" /><path d="M385.492 110.000L300.000 194.000" stroke="#67d7c4" stroke-width="2.4" /><path d="M385.492 278.000L240.000 362.000" stroke="#4d4672" stroke-width="2.4" /><path d="M385.492 278.000L270.000 245.962" stroke="#4d4672" stroke-width="2.4" /><path d="M240.000 362.000L94.508 278.000" stroke="#4d4672" stroke-width="2.4" /><path d="M240.000 362.000L210.000 245.962" stroke="#4d4672" stroke-width="2.4" /><path d="M94.508 278.000L94.508 110.000" stroke="#67d7c4" stroke-width="2.4" /><path d="M94.508 278.000L180.000 194.000" stroke="#4d4672" stroke-width="2.4" /><path d="M94.508 110.000L210.000 142.038" stroke="#67d7c4" stroke-width="2.4" /><path d="M270.000 142.038L300.000 194.000" stroke="#67d7c4" stroke-width="2.4" /><path d="M270.000 142.038L210.000 142.038" stroke="#67d7c4" stroke-width="2.4" /><path d="M300.000 194.000L270.000 245.962" stroke="#4d4672" stroke-width="2.4" /><path d="M270.000 245.962L210.000 245.962" stroke="#4d4672" stroke-width="2.4" /><path d="M210.000 245.962L180.000 194.000" stroke="#4d4672" stroke-width="2.4" /><path d="M180.000 194.000L210.000 142.038" stroke="#4d4672" stroke-width="2.4" /><circle cx="240.000" cy="26.000" r="18" fill="#b59bff" stroke="#b59bff" stroke-width="2" /><text x="240.000" y="31.000" text-anchor="middle" font-size="16" fill="#0d0b18">A</text><circle cx="385.492" cy="110.000" r="18" fill="#67d7c4" stroke="#67d7c4" stroke-width="2" /><text x="385.492" y="115.000" text-anchor="middle" font-size="16" fill="#0d0b18">B</text><circle cx="385.492" cy="278.000" r="18" fill="#f2a65a" stroke="#f2a65a" stroke-width="2" /><text x="385.492" y="283.000" text-anchor="middle" font-size="16" fill="#0d0b18">C</text><circle cx="240.000" cy="362.000" r="18" fill="#171329" stroke="#c9c0e5" stroke-width="2" /><text x="240.000" y="367.000" text-anchor="middle" font-size="16" fill="#c9c0e5">D</text><circle cx="94.508" cy="278.000" r="18" fill="#f2a65a" stroke="#f2a65a" stroke-width="2" /><text x="94.508" y="283.000" text-anchor="middle" font-size="16" fill="#0d0b18">E</text><circle cx="94.508" cy="110.000" r="18" fill="#67d7c4" stroke="#67d7c4" stroke-width="2" /><text x="94.508" y="115.000" text-anchor="middle" font-size="16" fill="#0d0b18">F</text><circle cx="270.000" cy="142.038" r="18" fill="#67d7c4" stroke="#67d7c4" stroke-width="2" /><text x="270.000" y="147.038" text-anchor="middle" font-size="16" fill="#0d0b18">G</text><circle cx="300.000" cy="194.000" r="18" fill="#f2a65a" stroke="#f2a65a" stroke-width="2" /><text x="300.000" y="199.000" text-anchor="middle" font-size="16" fill="#0d0b18">H</text><circle cx="270.000" cy="245.962" r="18" fill="#171329" stroke="#c9c0e5" stroke-width="2" /><text x="270.000" y="250.962" text-anchor="middle" font-size="16" fill="#c9c0e5">I</text><circle cx="210.000" cy="245.962" r="18" fill="#171329" stroke="#c9c0e5" stroke-width="2" /><text x="210.000" y="250.962" text-anchor="middle" font-size="16" fill="#c9c0e5">J</text><circle cx="180.000" cy="194.000" r="18" fill="#171329" stroke="#c9c0e5" stroke-width="2" /><text x="180.000" y="199.000" text-anchor="middle" font-size="16" fill="#c9c0e5">K</text><circle cx="210.000" cy="142.038" r="18" fill="#f2a65a" stroke="#f2a65a" stroke-width="2" /><text x="210.000" y="147.038" text-anchor="middle" font-size="16" fill="#0d0b18">L</text></g><text x="30" y="338" font-size="25" fill="#67d7c4">8 / 12 reached</text><text x="30" y="365" font-size="12" fill="#c9c0e5">4 reachable later</text><text x="30" y="384" font-size="11" fill="#c9c0e5">12 vertices · 18 edges · degree 3</text><rect x="310" y="48" width="280" height="352" rx="2" fill="#171329" stroke="#4d4672"/><text x="326" y="76" font-size="17" fill="#f6f2ff">02 Narrow</text><g transform="translate(318 91) scale(.55)"><path d="M240.000 26.000L385.492 110.000" stroke="#67d7c4" stroke-width="2.4" /><path d="M240.000 26.000L385.492 278.000" stroke="#67d7c4" stroke-width="2.4" /><path d="M240.000 26.000L240.000 362.000" stroke="#67d7c4" stroke-width="2.4" /><path d="M385.492 110.000L385.492 278.000" stroke="#67d7c4" stroke-width="2.4" /><path d="M385.492 110.000L94.508 278.000" stroke="#67d7c4" stroke-width="2.4" /><path d="M385.492 278.000L270.000 245.962" stroke="#67d7c4" stroke-width="2.4" /><path d="M240.000 362.000L94.508 278.000" stroke="#67d7c4" stroke-width="2.4" /><path d="M240.000 362.000L94.508 110.000" stroke="#67d7c4" stroke-width="2.4" /><path d="M94.508 278.000L94.508 110.000" stroke="#67d7c4" stroke-width="2.4" /><path d="M94.508 110.000L210.000 142.038" stroke="#4d4672" stroke-width="2.4" /><path d="M270.000 142.038L300.000 194.000" stroke="#4d4672" stroke-width="2.4" /><path d="M270.000 142.038L270.000 245.962" stroke="#4d4672" stroke-width="2.4" /><path d="M270.000 142.038L210.000 245.962" stroke="#4d4672" stroke-width="2.4" /><path d="M300.000 194.000L270.000 245.962" stroke="#4d4672" stroke-width="2.4" /><path d="M300.000 194.000L180.000 194.000" stroke="#4d4672" stroke-width="2.4" /><path d="M210.000 245.962L180.000 194.000" stroke="#4d4672" stroke-width="2.4" /><path d="M210.000 245.962L210.000 142.038" stroke="#4d4672" stroke-width="2.4" /><path d="M180.000 194.000L210.000 142.038" stroke="#4d4672" stroke-width="2.4" /><circle cx="240.000" cy="26.000" r="18" fill="#b59bff" stroke="#b59bff" stroke-width="2" /><text x="240.000" y="31.000" text-anchor="middle" font-size="16" fill="#0d0b18">A</text><circle cx="385.492" cy="110.000" r="18" fill="#67d7c4" stroke="#67d7c4" stroke-width="2" /><text x="385.492" y="115.000" text-anchor="middle" font-size="16" fill="#0d0b18">B</text><circle cx="385.492" cy="278.000" r="18" fill="#67d7c4" stroke="#67d7c4" stroke-width="2" /><text x="385.492" y="283.000" text-anchor="middle" font-size="16" fill="#0d0b18">C</text><circle cx="240.000" cy="362.000" r="18" fill="#67d7c4" stroke="#67d7c4" stroke-width="2" /><text x="240.000" y="367.000" text-anchor="middle" font-size="16" fill="#0d0b18">D</text><circle cx="94.508" cy="278.000" r="18" fill="#f2a65a" stroke="#f2a65a" stroke-width="2" /><text x="94.508" y="283.000" text-anchor="middle" font-size="16" fill="#0d0b18">E</text><circle cx="94.508" cy="110.000" r="18" fill="#f2a65a" stroke="#f2a65a" stroke-width="2" /><text x="94.508" y="115.000" text-anchor="middle" font-size="16" fill="#0d0b18">F</text><circle cx="270.000" cy="142.038" r="18" fill="#171329" stroke="#c9c0e5" stroke-width="2" /><text x="270.000" y="147.038" text-anchor="middle" font-size="16" fill="#c9c0e5">G</text><circle cx="300.000" cy="194.000" r="18" fill="#171329" stroke="#c9c0e5" stroke-width="2" /><text x="300.000" y="199.000" text-anchor="middle" font-size="16" fill="#c9c0e5">H</text><circle cx="270.000" cy="245.962" r="18" fill="#f2a65a" stroke="#f2a65a" stroke-width="2" /><text x="270.000" y="250.962" text-anchor="middle" font-size="16" fill="#0d0b18">I</text><circle cx="210.000" cy="245.962" r="18" fill="#171329" stroke="#c9c0e5" stroke-width="2" /><text x="210.000" y="250.962" text-anchor="middle" font-size="16" fill="#c9c0e5">J</text><circle cx="180.000" cy="194.000" r="18" fill="#171329" stroke="#c9c0e5" stroke-width="2" /><text x="180.000" y="199.000" text-anchor="middle" font-size="16" fill="#c9c0e5">K</text><circle cx="210.000" cy="142.038" r="18" fill="#171329" stroke="#c9c0e5" stroke-width="2" /><text x="210.000" y="147.038" text-anchor="middle" font-size="16" fill="#c9c0e5">L</text></g><text x="326" y="338" font-size="25" fill="#67d7c4">7 / 12 reached</text><text x="326" y="365" font-size="12" fill="#c9c0e5">5 reachable later</text><text x="326" y="384" font-size="11" fill="#c9c0e5">12 vertices · 18 edges · degree 3</text><rect x="606" y="48" width="280" height="352" rx="2" fill="#171329" stroke="#4d4672"/><text x="622" y="76" font-size="17" fill="#f6f2ff">03 Apart</text><g transform="translate(614 91) scale(.55)"><path d="M240.000 26.000L385.492 110.000" stroke="#67d7c4" stroke-width="2.4" /><path d="M240.000 26.000L385.492 278.000" stroke="#67d7c4" stroke-width="2.4" /><path d="M240.000 26.000L240.000 362.000" stroke="#67d7c4" stroke-width="2.4" /><path d="M385.492 110.000L385.492 278.000" stroke="#67d7c4" stroke-width="2.4" /><path d="M385.492 110.000L94.508 278.000" stroke="#67d7c4" stroke-width="2.4" /><path d="M385.492 278.000L94.508 110.000" stroke="#67d7c4" stroke-width="2.4" /><path d="M240.000 362.000L94.508 278.000" stroke="#67d7c4" stroke-width="2.4" /><path d="M240.000 362.000L94.508 110.000" stroke="#67d7c4" stroke-width="2.4" /><path d="M94.508 278.000L94.508 110.000" stroke="#67d7c4" stroke-width="2.4" /><path d="M270.000 142.038L300.000 194.000" stroke="#c9c0e5" stroke-width="2.4" stroke-dasharray="5 6"/><path d="M270.000 142.038L270.000 245.962" stroke="#c9c0e5" stroke-width="2.4" stroke-dasharray="5 6"/><path d="M270.000 142.038L210.000 245.962" stroke="#c9c0e5" stroke-width="2.4" stroke-dasharray="5 6"/><path d="M300.000 194.000L270.000 245.962" stroke="#c9c0e5" stroke-width="2.4" stroke-dasharray="5 6"/><path d="M300.000 194.000L180.000 194.000" stroke="#c9c0e5" stroke-width="2.4" stroke-dasharray="5 6"/><path d="M270.000 245.962L210.000 142.038" stroke="#c9c0e5" stroke-width="2.4" stroke-dasharray="5 6"/><path d="M210.000 245.962L180.000 194.000" stroke="#c9c0e5" stroke-width="2.4" stroke-dasharray="5 6"/><path d="M210.000 245.962L210.000 142.038" stroke="#c9c0e5" stroke-width="2.4" stroke-dasharray="5 6"/><path d="M180.000 194.000L210.000 142.038" stroke="#c9c0e5" stroke-width="2.4" stroke-dasharray="5 6"/><circle cx="240.000" cy="26.000" r="18" fill="#b59bff" stroke="#b59bff" stroke-width="2" /><text x="240.000" y="31.000" text-anchor="middle" font-size="16" fill="#0d0b18">A</text><circle cx="385.492" cy="110.000" r="18" fill="#67d7c4" stroke="#67d7c4" stroke-width="2" /><text x="385.492" y="115.000" text-anchor="middle" font-size="16" fill="#0d0b18">B</text><circle cx="385.492" cy="278.000" r="18" fill="#67d7c4" stroke="#67d7c4" stroke-width="2" /><text x="385.492" y="283.000" text-anchor="middle" font-size="16" fill="#0d0b18">C</text><circle cx="240.000" cy="362.000" r="18" fill="#67d7c4" stroke="#67d7c4" stroke-width="2" /><text x="240.000" y="367.000" text-anchor="middle" font-size="16" fill="#0d0b18">D</text><circle cx="94.508" cy="278.000" r="18" fill="#f2a65a" stroke="#f2a65a" stroke-width="2" /><text x="94.508" y="283.000" text-anchor="middle" font-size="16" fill="#0d0b18">E</text><circle cx="94.508" cy="110.000" r="18" fill="#f2a65a" stroke="#f2a65a" stroke-width="2" /><text x="94.508" y="115.000" text-anchor="middle" font-size="16" fill="#0d0b18">F</text><circle cx="270.000" cy="142.038" r="18" fill="#171329" stroke="#c9c0e5" stroke-width="2" stroke-dasharray="3 3"/><text x="270.000" y="147.038" text-anchor="middle" font-size="16" fill="#c9c0e5">G</text><circle cx="300.000" cy="194.000" r="18" fill="#171329" stroke="#c9c0e5" stroke-width="2" stroke-dasharray="3 3"/><text x="300.000" y="199.000" text-anchor="middle" font-size="16" fill="#c9c0e5">H</text><circle cx="270.000" cy="245.962" r="18" fill="#171329" stroke="#c9c0e5" stroke-width="2" stroke-dasharray="3 3"/><text x="270.000" y="250.962" text-anchor="middle" font-size="16" fill="#c9c0e5">I</text><circle cx="210.000" cy="245.962" r="18" fill="#171329" stroke="#c9c0e5" stroke-width="2" stroke-dasharray="3 3"/><text x="210.000" y="250.962" text-anchor="middle" font-size="16" fill="#c9c0e5">J</text><circle cx="180.000" cy="194.000" r="18" fill="#171329" stroke="#c9c0e5" stroke-width="2" stroke-dasharray="3 3"/><text x="180.000" y="199.000" text-anchor="middle" font-size="16" fill="#c9c0e5">K</text><circle cx="210.000" cy="142.038" r="18" fill="#171329" stroke="#c9c0e5" stroke-width="2" stroke-dasharray="3 3"/><text x="210.000" y="147.038" text-anchor="middle" font-size="16" fill="#c9c0e5">L</text></g><text x="622" y="338" font-size="25" fill="#67d7c4">6 / 12 reached</text><text x="622" y="365" font-size="12" fill="#c9c0e5">6 unreachable</text><text x="622" y="384" font-size="11" fill="#c9c0e5">12 vertices · 18 edges · degree 3</text></g></svg>
